.
 
http://www.scenetime.com    -   SceneTime [ We been having it ] !!!


How come you press harder on a remote control when you know the battery is dead? so you better seed to get speed ;)

        Seed back for speed


...................................NFO:.................................................
   General
      Complete name : Flesh Wounds (2011) BRRip Xvid LKRG.avi
      Format : AVI
      Format/Info : Audio Video Interleave
      File size : 700 MiB
      Duration : 1h 21mn
      Overall bit rate : 1 207 Kbps
      Writing application : VirtualDubMod 1.5.10.2 (build 2540/release)
      Writing library : VirtualDubMod build 2540/release
   Video
      Format : MPEG-4 Visual
      Format profile : Streaming Video@L1
      Format settings, BVOP : Yes
      Format settings, QPel : No
      Format settings, GMC : No warppoints
      Format settings, Matrix : Default
      Muxing mode : Packed bitstream
      Codec ID : XVID
      Codec ID/Hint : XviD
      Duration : 1h 21mn
      Bit rate : 1 054 Kbps
      Width : 720 pixels
      Height : 416 pixels
      Display aspect ratio : 16/9
      Frame rate : 23.976 fps
      Resolution : 24 bits
      Colorimetry : 4:2:0
      Scan type : Progressive
      Bits/(Pixel*Frame) : 0.147
      Stream size : 611 MiB (87%)
      Writing library : XviD 1.1.0 (UTC 2005-11-22)
   Audio
      Format : MPEG Audio
      Format version : Version 1
      Format profile : Layer 3
      Codec ID : 55
      Codec ID/Hint : MP3
      Duration : 1h 21mn
      Bit rate mode : Variable
      Bit rate : 140 Kbps
      Minimum bit rate : 32.0 Kbps
      Channel(s) : 2 channels
      Sampling rate : 48.0 KHz
      Resolution : 16 bits
      Stream size : 81.3 MiB (12%)
      Alignment : Aligned on interleaves
      Interleave, duration : 24 ms (0.58 video frame)
      Interleave, preload duration : 131 ms
      Writing library : LAME3.98r
      Encoding settings : VBR (mtrh)